<svg xmlns="http://www.w3.org/2000/svg" viewBox="0 0 600 600" width="600" height="600">
  <defs>
    <linearGradient id="bg9" x1="0" y1="0" x2="0" y2="1">
      <stop offset="0%" stop-color="#f8f0f0"/>
      <stop offset="100%" stop-color="#e8d4d4"/>
    </linearGradient>
    <linearGradient id="kb9" x1="0" y1="0" x2="0" y2="1">
      <stop offset="0%" stop-color="#3a3a3a"/>
      <stop offset="100%" stop-color="#1a1a1a"/>
    </linearGradient>
    <linearGradient id="key9" x1="0" y1="0" x2="0" y2="1">
      <stop offset="0%" stop-color="#4a4a4a"/>
      <stop offset="100%" stop-color="#2a2a2a"/>
    </linearGradient>
    <filter id="shadow9"><feGaussianBlur in="SourceAlpha" stdDeviation="8"/><feOffset dy="6"/><feComponentTransfer><feFuncA type="linear" slope="0.3"/></feComponentTransfer><feMerge><feMergeNode/><feMergeNode in="SourceGraphic"/></feMerge></filter>
  </defs>

  <rect width="600" height="600" fill="url(#bg9)"/>
  <ellipse cx="300" cy="480" rx="230" ry="12" fill="#000" opacity="0.18"/>

  <!-- 键盘：俯视视角，带轻微透视（前宽后窄） -->
  <g filter="url(#shadow9)">
    <!-- 外壳 -->
    <path d="M100 200 L500 200 L520 440 L80 440 Z" fill="url(#kb9)" stroke="#000" stroke-width="1"/>
    <!-- 顶面边框 -->
    <path d="M100 200 L500 200 L508 240 L92 240 Z" fill="#0a0a0a"/>

    <!-- F 键行（顶部功能键） -->
    <g fill="url(#key9)" stroke="#000" stroke-width="0.5">
      <rect x="115" y="250" width="20" height="20" rx="2"/>
      <rect x="138" y="250" width="20" height="20" rx="2"/>
      <rect x="161" y="250" width="20" height="20" rx="2"/>
      <rect x="184" y="250" width="20" height="20" rx="2"/>
      <rect x="207" y="250" width="20" height="20" rx="2"/>
      <rect x="230" y="250" width="20" height="20" rx="2"/>
      <rect x="253" y="250" width="20" height="20" rx="2"/>
      <rect x="276" y="250" width="20" height="20" rx="2"/>
      <rect x="299" y="250" width="20" height="20" rx="2"/>
      <rect x="322" y="250" width="20" height="20" rx="2"/>
      <rect x="345" y="250" width="20" height="20" rx="2"/>
      <rect x="368" y="250" width="20" height="20" rx="2"/>
      <rect x="400" y="250" width="20" height="20" rx="2"/>
      <rect x="423" y="250" width="20" height="20" rx="2"/>
      <rect x="446" y="250" width="20" height="20" rx="2"/>
      <rect x="469" y="250" width="20" height="20" rx="2"/>
    </g>

    <!-- 数字行 -->
    <g fill="url(#key9)" stroke="#000" stroke-width="0.5">
      <rect x="113" y="280" width="22" height="22" rx="2"/>
      <rect x="138" y="280" width="22" height="22" rx="2"/>
      <rect x="163" y="280" width="22" height="22" rx="2"/>
      <rect x="188" y="280" width="22" height="22" rx="2"/>
      <rect x="213" y="280" width="22" height="22" rx="2"/>
      <rect x="238" y="280" width="22" height="22" rx="2"/>
      <rect x="263" y="280" width="22" height="22" rx="2"/>
      <rect x="288" y="280" width="22" height="22" rx="2"/>
      <rect x="313" y="280" width="22" height="22" rx="2"/>
      <rect x="338" y="280" width="22" height="22" rx="2"/>
      <rect x="363" y="280" width="22" height="22" rx="2"/>
      <rect x="388" y="280" width="22" height="22" rx="2"/>
      <rect x="413" y="280" width="22" height="22" rx="2"/>
      <rect x="445" y="280" width="44" height="22" rx="2"/>
    </g>

    <!-- QWERTY 行 -->
    <g fill="url(#key9)" stroke="#000" stroke-width="0.5">
      <rect x="115" y="310" width="32" height="22" rx="2"/>
      <rect x="150" y="310" width="22" height="22" rx="2"/>
      <rect x="175" y="310" width="22" height="22" rx="2"/>
      <rect x="200" y="310" width="22" height="22" rx="2"/>
      <rect x="225" y="310" width="22" height="22" rx="2"/>
      <rect x="250" y="310" width="22" height="22" rx="2"/>
      <rect x="275" y="310" width="22" height="22" rx="2"/>
      <rect x="300" y="310" width="22" height="22" rx="2"/>
      <rect x="325" y="310" width="22" height="22" rx="2"/>
      <rect x="350" y="310" width="22" height="22" rx="2"/>
      <rect x="375" y="310" width="22" height="22" rx="2"/>
      <rect x="400" y="310" width="22" height="22" rx="2"/>
      <rect x="425" y="310" width="32" height="22" rx="2"/>
    </g>

    <!-- ASDF 行 -->
    <g fill="url(#key9)" stroke="#000" stroke-width="0.5">
      <rect x="117" y="340" width="38" height="22" rx="2"/>
      <rect x="158" y="340" width="22" height="22" rx="2"/>
      <rect x="183" y="340" width="22" height="22" rx="2"/>
      <rect x="208" y="340" width="22" height="22" rx="2"/>
      <rect x="233" y="340" width="22" height="22" rx="2"/>
      <rect x="258" y="340" width="22" height="22" rx="2"/>
      <rect x="283" y="340" width="22" height="22" rx="2"/>
      <rect x="308" y="340" width="22" height="22" rx="2"/>
      <rect x="333" y="340" width="22" height="22" rx="2"/>
      <rect x="358" y="340" width="22" height="22" rx="2"/>
      <rect x="383" y="340" width="22" height="22" rx="2"/>
      <rect x="408" y="340" width="22" height="22" rx="2"/>
      <rect x="433" y="340" width="42" height="22" rx="2"/>
    </g>

    <!-- ZXCV 行 -->
    <g fill="url(#key9)" stroke="#000" stroke-width="0.5">
      <rect x="120" y="370" width="48" height="22" rx="2"/>
      <rect x="171" y="370" width="22" height="22" rx="2"/>
      <rect x="196" y="370" width="22" height="22" rx="2"/>
      <rect x="221" y="370" width="22" height="22" rx="2"/>
      <rect x="246" y="370" width="22" height="22" rx="2"/>
      <rect x="271" y="370" width="22" height="22" rx="2"/>
      <rect x="296" y="370" width="22" height="22" rx="2"/>
      <rect x="321" y="370" width="22" height="22" rx="2"/>
      <rect x="346" y="370" width="22" height="22" rx="2"/>
      <rect x="371" y="370" width="22" height="22" rx="2"/>
      <rect x="396" y="370" width="22" height="22" rx="2"/>
      <rect x="421" y="370" width="48" height="22" rx="2"/>
    </g>

    <!-- 空格行 -->
    <g fill="url(#key9)" stroke="#000" stroke-width="0.5">
      <rect x="123" y="400" width="30" height="22" rx="2"/>
      <rect x="156" y="400" width="30" height="22" rx="2"/>
      <rect x="189" y="400" width="180" height="22" rx="2"/>
      <rect x="372" y="400" width="30" height="22" rx="2"/>
      <rect x="405" y="400" width="30" height="22" rx="2"/>
      <rect x="438" y="400" width="30" height="22" rx="2"/>
    </g>

    <!-- RGB 灯带（底部） -->
    <rect x="120" y="425" width="380" height="3" fill="#e1251b" opacity="0.9"/>
    <rect x="120" y="425" width="100" height="3" fill="#19be6b" opacity="0.9"/>
    <rect x="280" y="425" width="100" height="3" fill="#4a90e2" opacity="0.9"/>
  </g>

  <text x="300" y="540" text-anchor="middle" fill="#1a1a1a" font-family="system-ui" font-size="18" font-weight="600">智选科技 KB1 机械键盘</text>
  <text x="300" y="565" text-anchor="middle" fill="#666" font-family="system-ui" font-size="13">SKU009 · 87 键 · RGB 背光</text>
</svg>